<svg xmlns="http://www.w3.org/2000/svg" width="14" height="16" viewBox="0 0 14 16" fill="none">
<path fill-rule="evenodd" clip-rule="evenodd" d="M0.0126353 1.17082C0.005657 0.618578 0.44768 0.165241 0.99992 0.158263L12.5246 0.0126339C13.0769 0.00565568 13.5302 0.447678 13.5372 0.999919C13.5441 1.55216 13.1021 2.0055 12.5499 2.01247L1.02519 2.1581C0.47295 2.16508 0.0196135 1.72306 0.0126353 1.17082Z" fill="#FCF9F9"/>
<path fill-rule="evenodd" clip-rule="evenodd" d="M4.01172 15.8467C3.45943 15.8467 3.01172 15.399 3.01172 14.8467L3.01172 4.38086C3.01172 3.82857 3.45943 3.38086 4.01172 3.38086C4.564 3.38086 5.01172 3.82857 5.01172 4.38086L5.01172 14.8467C5.01172 15.399 4.564 15.8467 4.01172 15.8467Z" fill="#FCF9F9"/>
<path fill-rule="evenodd" clip-rule="evenodd" d="M9.21484 12.0928C8.66256 12.0928 8.21484 11.6451 8.21484 11.0928L8.21484 4.38037C8.21484 3.82809 8.66256 3.38037 9.21484 3.38037C9.76713 3.38037 10.2148 3.82809 10.2148 4.38037L10.2148 11.0928C10.2148 11.6451 9.76713 12.0928 9.21484 12.0928Z" fill="#FCF9F9"/>
</svg>