<svg width="21" height="21" viewBox="0 0 21 21" fill="none" xmlns="http://www.w3.org/2000/svg">
<g id="Phone">
<path id="Phone_2" d="M6.659 1.35449C7.05898 1.35449 7.42747 1.57139 7.62162 1.92108L8.96831 4.34692C9.14463 4.66455 9.15294 5.04873 8.99044 5.37367L7.69307 7.96845C7.69307 7.96845 8.06905 9.9014 9.64253 11.4749C11.216 13.0484 13.1425 13.4178 13.1425 13.4178L15.7369 12.1207C16.062 11.9581 16.4465 11.9665 16.7642 12.1432L19.1969 13.4957C19.5463 13.6899 19.7629 14.0582 19.7629 14.4579V17.2508C19.7629 18.673 18.4418 19.7003 17.0942 19.2455C14.3265 18.3116 10.0302 16.5335 7.30708 13.8103C4.58393 11.0872 2.80578 6.79093 1.87188 4.02319C1.41717 2.67556 2.44441 1.35449 3.86666 1.35449H6.659Z" stroke="#FCF9F9" stroke-width="2" stroke-linejoin="round"/>
</g>
</svg>
