<svg xmlns="http://www.w3.org/2000/svg" width="22" height="22" viewBox="0 0 22 22" fill="none">
<path fill-rule="evenodd" clip-rule="evenodd" d="M10.2197 0.21967C10.5126 -0.0732233 10.9874 -0.0732233 11.2803 0.21967L21.2803 10.2197C21.5732 10.5126 21.5732 10.9874 21.2803 11.2803C20.9874 11.5732 20.5126 11.5732 20.2197 11.2803L10.75 1.81066L1.81066 10.75L10.75 19.6893L15.7197 14.7197C16.0126 14.4268 16.4874 14.4268 16.7803 14.7197C17.0732 15.0126 17.0732 15.4874 16.7803 15.7803L11.2803 21.2803C10.9874 21.5732 10.5126 21.5732 10.2197 21.2803L0.21967 11.2803C-0.0732233 10.9874 -0.0732233 10.5126 0.21967 10.2197L10.2197 0.21967ZM11.9781 11.5639L12.4571 12.0429C12.8476 12.4334 12.8476 13.0666 12.4571 13.4571C12.0666 13.8476 11.4334 13.8476 11.0429 13.4571L9.04289 11.4571C8.65237 11.0666 8.65237 10.4334 9.04289 10.0429L11.0429 8.04289C11.4334 7.65237 12.0666 7.65237 12.4571 8.04289C12.8476 8.43342 12.8476 9.06658 12.4571 9.45711L11.863 10.0512C12.3 10.0815 12.782 10.1269 13.2866 10.1942C14.2552 10.3233 15.3246 10.5355 16.3259 10.886C17.3213 11.2344 18.296 11.7354 19.0303 12.4698C20.5782 14.0176 20.4267 16.3198 20.0433 17.9813C19.8439 18.8454 19.5631 19.6202 19.3341 20.1763C19.2192 20.4554 19.1162 20.6822 19.0411 20.8407C19.0035 20.92 18.9729 20.9824 18.9511 21.0259L18.9353 21.0574L18.9253 21.0769L18.9179 21.0913L18.9157 21.0957L18.9149 21.0971L18.9146 21.0977C18.9145 21.0979 18.9144 21.0981 18.25 20.7501L18.9144 21.0981C18.7222 21.465 18.2689 21.6067 17.902 21.4145C17.5352 21.2224 17.3936 20.7695 17.5853 20.4026L17.5854 20.4026L17.5855 20.4024L17.5856 20.4021L17.586 20.4013L17.5903 20.3931L17.6095 20.3551C17.6268 20.3205 17.6527 20.2677 17.6855 20.1986C17.751 20.0602 17.8433 19.8573 17.9471 19.6052C18.1556 19.0987 18.4061 18.4048 18.5817 17.644C18.9483 16.0554 18.9218 14.4826 17.9697 13.5304C17.454 13.0148 16.7099 12.6096 15.8304 12.3018C14.9567 11.996 13.9948 11.8019 13.0884 11.681C12.701 11.6294 12.3269 11.5915 11.9781 11.5639Z" fill="#FCF9F9"/>
</svg>