<svg xmlns="http://www.w3.org/2000/svg" width="18" height="18" viewBox="0 0 18 18" fill="none">
  <path fill-rule="evenodd" clip-rule="evenodd" d="M18 9C18 13.9706 13.9706 18 9 18C4.02944 18 0 13.9706 0 9C0 4.02944 4.02944 0 9 0C13.9706 0 18 4.02944 18 9ZM13.2571 4.74495C13.4768 4.96462 13.4768 5.32078 13.2571 5.54045L9.79745 9.00015L13.2565 12.4592C13.4762 12.6789 13.4762 13.0351 13.2565 13.2547C13.0368 13.4744 12.6807 13.4744 12.461 13.2547L9.00195 9.79565L5.5429 13.2547C5.32323 13.4744 4.96708 13.4744 4.74741 13.2547C4.52774 13.0351 4.52774 12.6789 4.74741 12.4592L8.20646 9.00015L4.74679 5.54045C4.52712 5.32078 4.52712 4.96462 4.74679 4.74495C4.96645 4.52528 5.32261 4.52528 5.54228 4.74495L9.00195 8.20466L12.4616 4.74495C12.6813 4.52528 13.0375 4.52528 13.2571 4.74495Z" fill="white"/>
</svg>