<svg width="21" height="12" viewBox="0 0 21 12" fill="none" xmlns="http://www.w3.org/2000/svg">
<g id="Group 9">
<path id="Vector" d="M18.2617 1H3.26172C2.43329 1 1.76172 1.3731 1.76172 1.83333V10.1667C1.76172 10.6269 2.43329 11 3.26172 11H18.2617C19.0901 11 19.7617 10.6269 19.7617 10.1667V1.83333C19.7617 1.3731 19.0901 1 18.2617 1Z" stroke="#FCF9F9" stroke-width="2" stroke-linejoin="round"/>
<path id="Vector_2" d="M16.1112 6H11.8672" stroke="#FCF9F9" stroke-width="2" stroke-linecap="round" stroke-linejoin="round"/>
<path id="a" d="M6.55109 8.04094C6.22043 8.04094 5.92709 7.98494 5.67109 7.87294C5.42043 7.76094 5.22309 7.60627 5.07909 7.40894C4.94043 7.20627 4.87109 6.97427 4.87109 6.71294C4.87109 6.31827 5.03376 6.0036 5.35909 5.76894C5.68976 5.53427 6.13509 5.41694 6.69509 5.41694C7.18043 5.41694 7.56976 5.52094 7.86309 5.72894V5.53694C7.86309 5.28627 7.78576 5.09427 7.63109 4.96094C7.47643 4.8276 7.25243 4.76094 6.95909 4.76094C6.52176 4.76094 6.14576 4.85427 5.83109 5.04094C5.69776 5.1156 5.58309 5.15294 5.48709 5.15294C5.36976 5.15294 5.26576 5.0996 5.17509 4.99294C5.11643 4.91827 5.08709 4.84094 5.08709 4.76094C5.08709 4.6276 5.15643 4.51027 5.29509 4.40894C5.48709 4.27027 5.72976 4.16094 6.02309 4.08094C6.31643 4.00094 6.62576 3.96094 6.95109 3.96094C7.56976 3.96094 8.05509 4.10227 8.40709 4.38494C8.76443 4.66227 8.94309 5.04627 8.94309 5.53694V7.59294C8.94309 7.7316 8.89509 7.84094 8.79909 7.92094C8.70843 8.00094 8.58309 8.04094 8.42309 8.04094C8.25776 8.04094 8.12976 8.0036 8.03909 7.92894C7.94843 7.85427 7.90309 7.7476 7.90309 7.60894V7.52094C7.59909 7.8676 7.14843 8.04094 6.55109 8.04094ZM6.79909 7.30494C7.13509 7.30494 7.39643 7.25427 7.58309 7.15294C7.77509 7.04627 7.87109 6.8996 7.87109 6.71294C7.87109 6.53694 7.77509 6.3956 7.58309 6.28894C7.39109 6.18227 7.13509 6.12894 6.81509 6.12894C6.52709 6.12894 6.30309 6.1796 6.14309 6.28094C5.98843 6.38227 5.91109 6.52627 5.91109 6.71294C5.91109 6.8996 5.98843 7.04627 6.14309 7.15294C6.29776 7.25427 6.51643 7.30494 6.79909 7.30494Z" fill="#FCF9F9"/>
</g>
</svg>
