<svg width="79" height="54" viewBox="0 0 79 54" fill="none" xmlns="http://www.w3.org/2000/svg">
<rect x="1" y="0.5" width="77" height="52.5294" rx="9.5" fill="#FCF9F9" stroke="#828282"/>
<rect x="10.1777" y="6.61816" width="58.6471" height="40.2941" rx="5.5" fill="#FCF9F9" stroke="#828282"/>
<path d="M29.8651 26.7653C33.1593 26.7653 35.8298 24.0949 35.8298 20.8006C35.8298 17.5064 33.1593 14.8359 29.8651 14.8359C26.5709 14.8359 23.9004 17.5064 23.9004 20.8006C23.9004 24.0949 26.5709 26.7653 29.8651 26.7653Z" fill="#828282"/>
<path d="M16.8331 34.6213C13.1264 33.8939 9.67773 36.7316 9.67773 40.509V41.4121C9.67773 44.7258 12.364 47.4121 15.6777 47.4121H63.3248C66.6385 47.4121 69.3248 44.7258 69.3248 41.4121V32.1076C69.3248 27.5942 64.5291 24.6968 60.5338 26.7962L39.6809 37.7539C38.4697 38.3904 37.0772 38.5938 35.7346 38.3303L16.8331 34.6213Z" fill="#828282"/>
</svg>
